<?xml version="1.0" encoding="iso-8859-1"?>
<!-- Generator: Adobe Illustrator 19.0.0, SVG Export Plug-In . SVG Version: 6.00 Build 0)  -->
<svg version="1.1" id="Capa_1" xmlns="http://www.w3.org/2000/svg" xmlns:xlink="http://www.w3.org/1999/xlink" x="0px" y="0px"
	 viewBox="0 0 512 512" style="enable-background:new 0 0 512 512;" xml:space="preserve">
<polygon style="fill:#C8F5FF;" points="502,210 107,210 165.987,410 443.013,410 "/>
<g>
	<circle style="fill:#878791;" cx="220.54" cy="475" r="27"/>
	<circle style="fill:#878791;" cx="368.09" cy="475" r="27"/>
</g>
<rect x="154.09" y="97" style="fill:#F5C86E;" width="179.99" height="113"/>
<polygon style="fill:#FF5A5A;" points="267.215,10 267.215,97 334.079,97 334.079,210 451.215,210 451.215,10 "/>
<path d="M355.81,417.069c1.86-1.859,2.93-4.439,2.93-7.069s-1.07-5.21-2.93-7.07c-1.86-1.86-4.44-2.93-7.08-2.93
	c-2.63,0-5.21,1.069-7.06,2.93c-1.87,1.86-2.93,4.43-2.93,7.07c0,2.63,1.06,5.21,2.93,7.069c1.86,1.86,4.43,2.931,7.06,2.931
	C351.37,420,353.94,418.93,355.81,417.069z"/>
<path d="M510.009,204.012C508.121,201.487,505.153,200,502,200h-40.785V10c0-5.522-4.477-10-10-10h-184c-5.523,0-10,4.478-10,10v77
	H154.088c-5.523,0-10,4.478-10,10v103H107c-3.153,0-6.121,1.487-8.009,4.012s-2.475,5.793-1.583,8.817l58.987,200
	c1.254,4.252,5.158,7.171,9.591,7.171H304.5c5.523,0,10-4.478,10-10s-4.477-10-10-10H173.464l-53.088-180h33.713H334.08h117.136
	h37.409l-53.088,180H399c-5.523,0-10,4.478-10,10s4.477,10,10,10h44.013c4.433,0,8.337-2.919,9.591-7.171l58.987-200
	C512.483,209.805,511.897,206.537,510.009,204.012z M164.088,107h103.127h56.864v93H164.088V107z M344.08,200V97
	c0-5.522-4.477-10-10-10h-56.864V20h164v180H344.08z"/>
<path d="M454.101,438H145.552L62.68,157.017c-1.254-4.252-5.158-7.171-9.591-7.171H10c-5.523,0-10,4.478-10,10s4.477,10,10,10
	h35.612l82.873,280.983c1.254,4.252,5.158,7.171,9.591,7.171h49.616c-2.647,5.094-4.153,10.873-4.153,17c0,20.402,16.598,37,37,37
	s37-16.598,37-37c0-6.127-1.506-11.906-4.153-17h81.856c-2.647,5.094-4.153,10.873-4.153,17c0,20.402,16.598,37,37,37
	s37-16.598,37-37c0-6.127-1.506-11.906-4.153-17h53.166c5.523,0,10-4.478,10-10S459.624,438,454.101,438z M237.539,475
	c0,9.374-7.626,17-17,17s-17-7.626-17-17s7.626-17,17-17S237.539,465.626,237.539,475z M385.088,475c0,9.374-7.626,17-17,17
	s-17-7.626-17-17s7.626-17,17-17S385.088,465.626,385.088,475z"/>
<path d="M244.08,269c-2.63,0-5.2-1.07-7.07-2.931c-1.86-1.859-2.92-4.439-2.92-7.069s1.06-5.21,2.92-7.07s4.44-2.93,7.07-2.93
	c2.64,0,5.22,1.069,7.08,2.93c1.86,1.86,2.92,4.44,2.92,7.07s-1.06,5.21-2.92,7.069C249.29,267.93,246.72,269,244.08,269z"/>
<path d="M202.021,269h-72.606c-5.523,0-10-4.478-10-10s4.477-10,10-10h72.606c5.523,0,10,4.478,10,10S207.544,269,202.021,269z"/>
<g>
</g>
<g>
</g>
<g>
</g>
<g>
</g>
<g>
</g>
<g>
</g>
<g>
</g>
<g>
</g>
<g>
</g>
<g>
</g>
<g>
</g>
<g>
</g>
<g>
</g>
<g>
</g>
<g>
</g>
</svg>
